<svg id="Camada_1" xmlns="http://www.w3.org/2000/svg" viewBox="0 0 419.5 297.6">
  <style>
    .st1{fill:#5a7aff}.st2{opacity:.95;fill:#fff;enable-background:new}
  </style>
  <g id="mapa_base">
    <path class="st1" d="M112.9 236.1c-2.6 0-4.4 2.4-6.1 4.5 2.3 3.7 18.1-.1 22.7-.5 6.3-.5 12.9-2.1 19.3-2.2 0 1 1 2.6 1 3.2 5.6-7.4 13.6-7.3 21.9-7.7 4.4-.2 18.3-.2 17.2-7.7-.6.3-1.6.5-2.2 1 2.1-2.8 1.4-6.6-2.9-6.1.2-1-3.4-10.3 2.5-4.5.3-.5.9-1 1.2-1.5-.4-.4-.8-.8-1.1-1.3.9-.9 1.6-2.6 2.5-3.4-2.2-.7-4.1-.2-3.9 2.1-3.6-2.6-5.1 1.3-8.9 1 1.5-4.4 5.9-6.7 9.8-8.1 2.4-.9 14.5-7.1 13.4-.9.9.2 2.2 1.2 3.1 1.3-2 1-6.5 2-7.9 4.2-1.9 3.1 1.7 7.1-3.2 8.6.4 1.7-.6 3.1-2.2 4.1 1 1.4 1.6 4.5 2.9 5.5 1.4 1.1 3.9.6 5.5 1.7-.1.5-.5.8-.7 1.2 3.7.8 8.3-.5 12.1-.5 4.8 0 9.7-1.1 14.6-1.4 2.7-.2 13.4-2 16.5-2.2 12.6-.9 25.8-.6 38.5.8 5 .6 14.6-.6 16.5 5 0 0 .9-.3.9-.2.5-1.4.7-3.2.8-4.7-3.3-.1-3.2-2.9-1.9-5.2.6-1 9.6-12.1 12.9-11.5l-3-1c-5.6-3.3-8.2-10.9-6.7-17.1.2-.9.6-1.9 1-2.7 2-4 4.8-4.7 8.3-8.2 2.5-2.5 4-5.6 6.5-7.8 1.4-1.3.3-2.4 1.6-3.9.9-1 1.4-3.4 2.6-4.8 1.9-2.2 8.2-3.3 10.7-4.7 5.5-3 12.3-5.3 18.3-7.4 9.4-3.3 20.5-4.5 28.7-10.2 8-5.5 19.7-9.2 17-20.8-1.8-7.8-4.8-14.8-3.7-23.1.3-2.4 1.7-5.4.6-7.6-.5-1-3.3-1.5-4.2-2.8-3.8-5.5.5-10 3.7-14.2 2.7-3.5 7.6-8.1 5.7-13.1-1-2.6-8.6-10-11.5-9.3-1.7.4-7.7 2.9-9.5 2.7-1.6-.2-8-1.7-10.1-2-3.8-.6-14.7-2.8-18.5-4.2-3.3-1.2-6.7-1.2-10-2.7-4.6-2-9.5-3.9-13.9-6.1 2.4-1.9.6-14.9.5-16.4-.1-1.6.8-10.6-1.3-12.8-1.2-1.2-8.6-4.4-8.9-4.5-6.8-1.6-12.2 13.3-12.9 15.7-3.4 0-16 1.2-16.5 5.6-.4 4.1 4 2.1 5 5.4 1.1 3.6-13.3 11.7-10.3 19.5.7.3-2.2 10.7-4.1 16.2-1.5 4.1-10.5 24.3-11.5 27.1 4.8.5 13.4 4.4 6.2 8.3-2.8 1.5-50.2 26.5-60.4 27.2-4.4.3-40.6 3.1-47.2 5.1-7.7 2.4-41 4.4-48.4 7.8-3.4 1.5-37 17.6-48.5 16.2-3-.4-20.6 7.1-23.3 7.6-1.6.3-8.3 2.1-7.9 3.7.4 1.6 3.7 1.5 5.2 2.5 2.5 1.7 9.3 14.2 9.9 13.9-.4 9.7 29.1 5.2 30 3.6 4.1 1.2 13 1.3 14.8 6.1 2.4 6.3-4.9 9-6.7 14.7-4.2 5.8-15.8 6.4-21.7 6.3-.9 0-7.6 1.8-9.3 2.4-2.1.7-10.1 4-10.4 4.6-4.3-1.8-11.5 10.3-11.7 11.7-.5 2.8-5.9 12.3-6.6 15.3-.6 2.7.6 5.5 2.6 7.3 1.1 1 6.6 8.9 10.7 9.3 2.7.3 11.7-1.3 13.7.4.6-3.6 6.9-5.5 8.2-7.6s-5.3-5.3-4.7-6.3c-.6 0-7.1-3.2-8.5-4.8-1.9 4.7-4.6 4.3-4.9.4-.2-2.5 1-8.5 2.4-10.3 4.3-5.4 16.6-6 22.8-6.3-.6-5 3.9-6.5 7.9-6.3-.2-.7 3 .8 3.7 1.1-8.4 6.5-.4 7.4 5.4 3.7 1.5 1.6 1.2 3.6-.3 5.2 1.7 0 3.4-.3 5-.9 1.2 7.1 12.6-7.4 14.2-9.7-.2 1.7-.1 3.8.8 5.3.1.2.5 0 .7.2.1-3.6 5.6-7.4 9.6-7.1 2.5.2 4.2 4.6 6.5-.5-.5-.4.4-2.4 1.6-2.5-.3.3-1 .8-1.2 1.2 1.8.9 5.8 0 7.7.4 3.1.7 3.1 2.8 5.5 4.7 0 .1 1.5.5 1.5.8 2.8 3.4 1.6-3.9 11.6 5.2-4.5 1-10.9 2.4-15.5 2.8-6 .5-10.5-3.4-16.1-3.1"/>
    <path class="st1" d="M91.5 243.1c.1-.5-1.4-.9-1.8-1-1.9-.6-2.5-.2-2.8-.5s0-1.2-.5-.8c-1.3 1-1 .9-1.3 1.4-.4 1 .4 1.3.4 1.5s-1.4.2-1.9.3c-.5.2-1.3.3-1.3.9s.3 1.7-.3 1.4c-.6-.3-1.1-.8-1.1-1.3 0-.6.8-1.7.1-1.3s-1.3 1.1-1.8 1.5-1.2.7-1 1.2.5 1.1.2 1.3-.4.5-1.6.4-1.7.3-2 .7-1.2.4-1.3 1c-.2.6-.9 1.3-.4 1.3 1.5.3 1.5.7 1.9.7 1.3 0 1.5-.8 1.6-.5s-.2 1.7-.4 2.3-.4 1.1-.6 2-.4 1.6.6 1.1 2.2-.9 2-1.7.3-1.3.6-2.2c.3-.8-.4-1.4.5-1.5s2.8-.4 3.5-.3c.7.1.9.5.4 1.1s-.9 1.3-.1 1.1c1.8-.6.8.3 1.7.6.8.3 1.5-.3 2.3-.6s1.6-.8 2.3-.6.2 1 .6 1.2 2.3-1.2 2.6-1.3c.3-.2.3-.8.8-1.3s1.5-1.2 2-.8c1 .8-.2 1.4.6 1.5.8.1 2.1-.3 2.1-.3 1.6-.6 2.6-1.2 2.5-1.5s-.6-.8-1.3-.8c-.7 0-.8-1.4-1.2-1.3-1.3.4-1.7-.8-1.7-.8s.9-1.6.9-2-.4-.9-1.3-.7-1.8.3-1.8.9c0 .7-.3 1.7-.6 1.4s-.8-2-.8-2-1.1-.1-1.7-.1c-.4-.1.3-.8.4-1.6z"/>
  </g>
  <g id="menores">
    <path class="st2" d="M313.5 173.1c-.6.1-2.4-.6-3.6-.1s.2 1.4-2 1.2-2.2-.3-3.6-1.3-1.8-1.1-3.2-1.3-.4-.7-2-.4-1.9.7-2.8.9-.8-.4-2.3-.8c-1.4-.4-1.8-.2-2.6.5s-1.2 1.8-1.3 2.5c-.2.8.2 1.7-.9 1.8s-.8-1.2-1.1-.9.3 1.3-1.1 1.1-1.9-.3-1.8-.9c.2-.7.8-1.2.8-1.9s.3-1.9-.9-1c-1.3.9-1.3.7-1.7 1.1-1.1 1.1-.8 1.6-1.7 1.8-.8.2-.3-1.2-.5-1.1-.3.1-1.4 1.3-1.8 1.2-.4-.2-.8-.8-.8-.8s-.1.8-.8.8-2-1.1-2.2-1.5-.8-1.9-1.3-2c-.4-.1.4-.6.3-1.1s-.9-1.8-.1-1.5 2.1 1.4 1.8.2 0-3.5-1-4-2.3-.8-3.1-1.2-1.5-1.1-1.5-1.1c1.4-.6 1.5-1.2 2.1-1.7 1.3-1 2.1-2 2.2-2.3s1.2-1.4 1.2-1.4.9-1 1.3-1 1.6-.1 1.6-.4c0-.3 0-2.2.3-2.4.3-.3 1.9-.8 2.6-.8.7-.1 1.4.4 2 .2s1-.5 1.8-.6 1.6-.1 1.7-.4c.1-.3-1.2-2.4-.3-2.8.9-.3 1.8-1.8 2.8-1.8.9 0 3.1-.3 3.7-.5.6-.3 1.8-2.2 2.4-2.3.6-.2 1.6-.5 1.9-.4s.2 2.4.4 2.3c2.4-.2 1.6.1 2.7.4s1.8.3 2.2.3c.4 0 1.3.7 1.5 1.3s.6 2 .4 2.7-2.5 1.9-2.1 2.5.8.4 1.5.7.5 1.5.8 1.7 1.1.4 1.3 1.1c.3.7-.2 1.4.3 1.4 1.6.1 1.8-1.8 1.7-2.7-.1-.8 0-2.2.8-3.3s1.4-1.8 1.7-2.4c.3-.7.8-2.4.6-3.2s-.2-1.9.8-1.6c.9.3 4.3 2.7 4.3 2.7l3.9 3.1s2.8 2 2.7 2.3c-.2.3-.1 2-.1 2.3s-.6 3.2 0 3.4c.6.3 2.1.9 1.8 1.7-.3.8-.8 1.5-.8 1.5l-6.2 5.1-.6 2s-.3 1.9-.7 2.1c-.4.2-3.1 1.8-3.1 1.8M179.9 182.8s-1.2-.1-1.5.8c-.3.9-.3 1.3-.8 2s-.5 1.3-.5 2 .6 1.3 1 1.2 2.3-.8 2.3-.8.7 1.6 1.1 2.1c.4.5 1.6 3.2 1.6 3.2l-1.6 2.4s-.9 1.3-.5 2-.4 2.1-.1 2.4c.3.3.7 1.9.3 2.3-.3.3-1.3 1.2-.8 1.3.4.2 1.6 1.7 1.6 1.7s.1.7-2.3 1c-.4.1-3.7 4.2-3.7 4.2s-.6.7-.5.5c.3-.4-1.5-.9-2.1-.8-.3 0-1.4 0-2 .1-.4.1-1.6.9-1.3-1.3s.6-5.2.7-5.8c.1-.7.6-1.8.1-2s-1.9.3-2.4 0-1.6-1.6-1.8-1.8-1.1-.4-1.6-.8-1.4-1.5-1.2-1.9c.3-.4 1.3-2.2 1.3-2.4s.3-1.1-.7-1.3-2-.3-2-1-.3-1.3-.2-1.5 1.6-.8 1.9-1.2c.3-.4.9-.9.6-1.3-.3-.4-1.1-.9-1.3-1.3-.2-.4-.7-1-.5-1.3s.8-1.2 1.7-1.3c.8-.2 2.6 0 3.4-.3.8-.3 2.7-2.6 3.3-3.2.6-.6 1.5-1.5 2.4-1.4 1.1-.2 5.6 2.6 6.1 3.5zM184.3 219.7c.2.2-.3 0-.3 0s1.5 1.1 2.5 1.3 1 1.3 1.5 1.5 0 1.9 0 1.9l-.1 1.5s.4 0 1-.1.3 1.9.3 1.9l-.4.9s-1.4 1.5-1.6 1.6-1.5 1.6-1.5 1.6-3.3.6-5.6 1.6c-.4.2-2.9.4-3.5.4s-.8 1.1-1.1 1-4.8-.3-6.1-.5-6.4 1.1-7.3 1.1-2.1.8-2.4 1.1-2-.1-2.4.1-3.1 1.4-3.9 1.4-1.1 1.4-1.1 1.4-1.4 2-2.3 1.9-1.5-3-2-3.3-5.8.9-5.8.9l-1.1-2.2c2.4-.6 4.6-1.2 4.8-1.2.4 0-1-1.5-1.8-2.1s-2.9-1.1-4.1-1.8-1.1 0-3.1.4c-.5.1-1-1-2.1-1.4s.1-1.1.1-1.1l-3.3-2.6s-2-1.9-3.6-2.6c-.1 0-.1-.1-.2-.1 0 0 1-1.1 2-1.3s1.9-.6 2.3-.9.8-1.3 1.4-1.3 2.5-.4 3.2-.8 1.9-.9 2.6-.8 1.1-.4 1.6-.8 1.5-.5 2.1-.3 2 .1 2.9 0 1-1.4 1.3-1.7 1.8-1.4 2.9-1.4 3.9-.8 4.4-.8 2.2-.6 2.6-.2 1.4 1.9 1.4 1.9-.1 1.4 1.3 1 2.8-.9 3.1-1.3.4-.6.6-1.1 1.4-1.1 2.3-1.1 2.8-1.1 3-1.2 1.9-.1 2.1-.1 2.5-.2 2.5-.2 1.9.1 2.1.2 2.1 1.9 2.1 1.9l1.9 1.3s.1 1.8.3 1.9.3 1.4.3 1.7 1.4 1.1 1.8.9 2-.4 2.4 0z"/>
  </g>
</svg>
