<?xml version="1.0" encoding="utf-8"?>
<!-- Generator: Adobe Illustrator 22.0.1, SVG Export Plug-In . SVG Version: 6.00 Build 0)  -->
<svg version="1.1" id="Camada_1" xmlns="http://www.w3.org/2000/svg" xmlns:xlink="http://www.w3.org/1999/xlink" x="0px" y="0px"
	 viewBox="0 0 419.5 297.6" style="enable-background:new 0 0 419.5 297.6;" xml:space="preserve">
<style type="text/css">
	.st0{display:none;}
	.st1{fill:#5A7AFF;}
	.st2{opacity:0.95;fill:#FFFFFF;enable-background:new    ;}
</style>
<g id="Layer_1" class="st0">
	
		<image style="display:inline;overflow:visible;enable-background:new    ;" width="405" height="604" xlink:href="1ABCB8E0.jpeg"  transform="matrix(0.3043 0 0 0.3043 447.3609 53.0078)">
	</image>
</g>
<g id="fundo">
</g>
<g id="mapa_base">
	<path class="st1" d="M112.9,236.1c-2.6,0-4.4,2.4-6.1,4.5c2.3,3.7,18.1-0.1,22.7-0.5c6.3-0.5,12.9-2.1,19.3-2.2c0,1,1,2.6,1,3.2
		c5.6-7.4,13.6-7.3,21.9-7.7c4.4-0.2,18.3-0.2,17.2-7.7c-0.6,0.3-1.6,0.5-2.2,1c2.1-2.8,1.4-6.6-2.9-6.1c0.2-1-3.4-10.3,2.5-4.5
		c0.3-0.5,0.9-1,1.2-1.5c-0.4-0.4-0.8-0.8-1.1-1.3c0.9-0.9,1.6-2.6,2.5-3.4c-2.2-0.7-4.1-0.2-3.9,2.1c-3.6-2.6-5.1,1.3-8.9,1
		c1.5-4.4,5.9-6.7,9.8-8.1c2.4-0.9,14.5-7.1,13.4-0.9c0.9,0.2,2.2,1.2,3.1,1.3c-2,1-6.5,2-7.9,4.2c-1.9,3.1,1.7,7.1-3.2,8.6
		c0.4,1.7-0.6,3.1-2.2,4.1c1,1.4,1.6,4.5,2.9,5.5c1.4,1.1,3.9,0.6,5.5,1.7c-0.1,0.5-0.5,0.8-0.7,1.2c3.7,0.8,8.3-0.5,12.1-0.5
		c4.8,0,9.7-1.1,14.6-1.4c2.7-0.2,13.4-2,16.5-2.2c12.6-0.9,25.8-0.6,38.5,0.8c5,0.6,14.6-0.6,16.5,5c0,0,0.9-0.3,0.9-0.2
		c0.5-1.4,0.7-3.2,0.8-4.7c-3.3-0.1-3.2-2.9-1.9-5.2c0.6-1,9.6-12.1,12.9-11.5l-3-1c-5.6-3.3-8.2-10.9-6.7-17.1
		c0.2-0.9,0.6-1.9,1-2.7c2-4,4.8-4.7,8.3-8.2c2.5-2.5,4-5.6,6.5-7.8c1.4-1.3,0.3-2.4,1.6-3.9c0.9-1,1.4-3.4,2.6-4.8
		c1.9-2.2,8.2-3.3,10.7-4.7c5.5-3,12.3-5.3,18.3-7.4c9.4-3.3,20.5-4.5,28.7-10.2c8-5.5,19.7-9.2,17-20.8c-1.8-7.8-4.8-14.8-3.7-23.1
		c0.3-2.4,1.7-5.4,0.6-7.6c-0.5-1-3.3-1.5-4.2-2.8c-3.8-5.5,0.5-10,3.7-14.2c2.7-3.5,7.6-8.1,5.7-13.1c-1-2.6-8.6-10-11.5-9.3
		c-1.7,0.4-7.7,2.9-9.5,2.7c-1.6-0.2-8-1.7-10.1-2c-3.8-0.6-14.7-2.8-18.5-4.2c-3.3-1.2-6.7-1.2-10-2.7c-4.6-2-9.5-3.9-13.9-6.1
		c2.4-1.9,0.6-14.9,0.5-16.4c-0.1-1.6,0.8-10.6-1.3-12.8c-1.2-1.2-8.6-4.4-8.9-4.5c-6.8-1.6-12.2,13.3-12.9,15.7
		c-3.4,0-16,1.2-16.5,5.6c-0.4,4.1,4,2.1,5,5.4c1.1,3.6-13.3,11.7-10.3,19.5c0.7,0.3-2.2,10.7-4.1,16.2
		c-1.5,4.1-10.5,24.3-11.5,27.1c4.8,0.5,13.4,4.4,6.2,8.3c-2.8,1.5-50.2,26.5-60.4,27.2c-4.4,0.3-40.6,3.1-47.2,5.1
		c-7.7,2.4-41,4.4-48.4,7.8c-3.4,1.5-37,17.6-48.5,16.2c-3-0.4-20.6,7.1-23.3,7.6c-1.6,0.3-8.3,2.1-7.9,3.7c0.4,1.6,3.7,1.5,5.2,2.5
		c2.5,1.7,9.3,14.2,9.9,13.9c-0.4,9.7,29.1,5.2,30,3.6c4.1,1.2,13,1.3,14.8,6.1c2.4,6.3-4.9,9-6.7,14.7c-4.2,5.8-15.8,6.4-21.7,6.3
		c-0.9,0-7.6,1.8-9.3,2.4c-2.1,0.7-10.1,4-10.4,4.6c-4.3-1.8-11.5,10.3-11.7,11.7c-0.5,2.8-5.9,12.3-6.6,15.3
		c-0.6,2.7,0.6,5.5,2.6,7.3c1.1,1,6.6,8.9,10.7,9.3c2.7,0.3,11.7-1.3,13.7,0.4c0.6-3.6,6.9-5.5,8.2-7.6s-5.3-5.3-4.7-6.3
		c-0.6,0-7.1-3.2-8.5-4.8c-1.9,4.7-4.6,4.3-4.9,0.4c-0.2-2.5,1-8.5,2.4-10.3c4.3-5.4,16.6-6,22.8-6.3c-0.6-5,3.9-6.5,7.9-6.3
		c-0.2-0.7,3,0.8,3.7,1.1c-8.4,6.5-0.4,7.4,5.4,3.7c1.5,1.6,1.2,3.6-0.3,5.2c1.7,0,3.4-0.3,5-0.9c1.2,7.1,12.6-7.4,14.2-9.7
		c-0.2,1.7-0.1,3.8,0.8,5.3c0.1,0.2,0.5,0,0.7,0.2c0.1-3.6,5.6-7.4,9.6-7.1c2.5,0.2,4.2,4.6,6.5-0.5c-0.5-0.4,0.4-2.4,1.6-2.5
		c-0.3,0.3-1,0.8-1.2,1.2c1.8,0.9,5.8,0,7.7,0.4c3.1,0.7,3.1,2.8,5.5,4.7c0,0.1,1.5,0.5,1.5,0.8c2.8,3.4,1.6-3.9,11.6,5.2
		c-4.5,1-10.9,2.4-15.5,2.8c-6,0.5-10.5-3.4-16.1-3.1"/>
	<path class="st1" d="M91.5,243.1c0.1-0.5-1.4-0.9-1.8-1c-1.9-0.6-2.5-0.2-2.8-0.5s0-1.2-0.5-0.8c-1.3,1-1,0.9-1.3,1.4
		c-0.4,1,0.4,1.3,0.4,1.5s-1.4,0.2-1.9,0.3c-0.5,0.2-1.3,0.3-1.3,0.9s0.3,1.7-0.3,1.4c-0.6-0.3-1.1-0.8-1.1-1.3
		c0-0.6,0.8-1.7,0.1-1.3s-1.3,1.1-1.8,1.5s-1.2,0.7-1,1.2s0.5,1.1,0.2,1.3s-0.4,0.5-1.6,0.4s-1.7,0.3-2,0.7s-1.2,0.4-1.3,1
		c-0.2,0.6-0.9,1.3-0.4,1.3c1.5,0.3,1.5,0.7,1.9,0.7c1.3,0,1.5-0.8,1.6-0.5s-0.2,1.7-0.4,2.3s-0.4,1.1-0.6,2s-0.4,1.6,0.6,1.1
		s2.2-0.9,2-1.7s0.3-1.3,0.6-2.2c0.3-0.8-0.4-1.4,0.5-1.5s2.8-0.4,3.5-0.3c0.7,0.1,0.9,0.5,0.4,1.1s-0.9,1.3-0.1,1.1
		c1.8-0.6,0.8,0.3,1.7,0.6c0.8,0.3,1.5-0.3,2.3-0.6s1.6-0.8,2.3-0.6s0.2,1,0.6,1.2s2.3-1.2,2.6-1.3c0.3-0.2,0.3-0.8,0.8-1.3
		s1.5-1.2,2-0.8c1,0.8-0.2,1.4,0.6,1.5c0.8,0.1,2.1-0.3,2.1-0.3c1.6-0.6,2.6-1.2,2.5-1.5s-0.6-0.8-1.3-0.8c-0.7,0-0.8-1.4-1.2-1.3
		c-1.3,0.4-1.7-0.8-1.7-0.8s0.9-1.6,0.9-2s-0.4-0.9-1.3-0.7s-1.8,0.3-1.8,0.9c0,0.7-0.3,1.7-0.6,1.4s-0.8-2-0.8-2s-1.1-0.1-1.7-0.1
		C90.7,244.6,91.4,243.9,91.5,243.1z"/>
</g>
<g id="menores">
	<path class="st2" d="M313.5,173.1c-0.6,0.1-2.4-0.6-3.6-0.1s0.2,1.4-2,1.2s-2.2-0.3-3.6-1.3s-1.8-1.1-3.2-1.3s-0.4-0.7-2-0.4
		s-1.9,0.7-2.8,0.9s-0.8-0.4-2.3-0.8c-1.4-0.4-1.8-0.2-2.6,0.5c-0.8,0.7-1.2,1.8-1.3,2.5c-0.2,0.8,0.2,1.7-0.9,1.8s-0.8-1.2-1.1-0.9
		s0.3,1.3-1.1,1.1s-1.9-0.3-1.8-0.9c0.2-0.7,0.8-1.2,0.8-1.9s0.3-1.9-0.9-1c-1.3,0.9-1.3,0.7-1.7,1.1c-1.1,1.1-0.8,1.6-1.7,1.8
		c-0.8,0.2-0.3-1.2-0.5-1.1c-0.3,0.1-1.4,1.3-1.8,1.2c-0.4-0.2-0.8-0.8-0.8-0.8s-0.1,0.8-0.8,0.8s-2-1.1-2.2-1.5s-0.8-1.9-1.3-2
		c-0.4-0.1,0.4-0.6,0.3-1.1s-0.9-1.8-0.1-1.5s2.1,1.4,1.8,0.2s0-3.5-1-4s-2.3-0.8-3.1-1.2s-1.5-1.1-1.5-1.1c1.4-0.6,1.5-1.2,2.1-1.7
		c1.3-1,2.1-2,2.2-2.3s1.2-1.4,1.2-1.4s0.9-1,1.3-1s1.6-0.1,1.6-0.4c0-0.3,0-2.2,0.3-2.4c0.3-0.3,1.9-0.8,2.6-0.8
		c0.7-0.1,1.4,0.4,2,0.2s1-0.5,1.8-0.6s1.6-0.1,1.7-0.4c0.1-0.3-1.2-2.4-0.3-2.8c0.9-0.3,1.8-1.8,2.8-1.8c0.9,0,3.1-0.3,3.7-0.5
		c0.6-0.3,1.8-2.2,2.4-2.3c0.6-0.2,1.6-0.5,1.9-0.4s0.2,2.4,0.4,2.3c2.4-0.2,1.6,0.1,2.7,0.4s1.8,0.3,2.2,0.3c0.4,0,1.3,0.7,1.5,1.3
		s0.6,2,0.4,2.7s-2.5,1.9-2.1,2.5s0.8,0.4,1.5,0.7s0.5,1.5,0.8,1.7s1.1,0.4,1.3,1.1c0.3,0.7-0.2,1.4,0.3,1.4
		c1.6,0.1,1.8-1.8,1.7-2.7c-0.1-0.8,0-2.2,0.8-3.3s1.4-1.8,1.7-2.4c0.3-0.7,0.8-2.4,0.6-3.2s-0.2-1.9,0.8-1.6
		c0.9,0.3,4.3,2.7,4.3,2.7l3.9,3.1c0,0,2.8,2,2.7,2.3c-0.2,0.3-0.1,2-0.1,2.3s-0.6,3.2,0,3.4c0.6,0.3,2.1,0.9,1.8,1.7
		c-0.3,0.8-0.8,1.5-0.8,1.5l-6.2,5.1l-0.6,2c0,0-0.3,1.9-0.7,2.1c-0.4,0.2-3.1,1.8-3.1,1.8"/>
	<path class="st2" d="M179.9,182.8c0,0-1.2-0.1-1.5,0.8c-0.3,0.9-0.3,1.3-0.8,2s-0.5,1.3-0.5,2s0.6,1.3,1,1.2s2.3-0.8,2.3-0.8
		s0.7,1.6,1.1,2.1c0.4,0.5,1.6,3.2,1.6,3.2l-1.6,2.4c0,0-0.9,1.3-0.5,2s-0.4,2.1-0.1,2.4c0.3,0.3,0.7,1.9,0.3,2.3
		c-0.3,0.3-1.3,1.2-0.8,1.3c0.4,0.2,1.6,1.7,1.6,1.7s0.1,0.7-2.3,1c-0.4,0.1-3.7,4.2-3.7,4.2s-0.6,0.7-0.5,0.5
		c0.3-0.4-1.5-0.9-2.1-0.8c-0.3,0-1.4,0-2,0.1c-0.4,0.1-1.6,0.9-1.3-1.3s0.6-5.2,0.7-5.8c0.1-0.7,0.6-1.8,0.1-2s-1.9,0.3-2.4,0
		s-1.6-1.6-1.8-1.8s-1.1-0.4-1.6-0.8s-1.4-1.5-1.2-1.9c0.3-0.4,1.3-2.2,1.3-2.4s0.3-1.1-0.7-1.3s-2-0.3-2-1s-0.3-1.3-0.2-1.5
		s1.6-0.8,1.9-1.2c0.3-0.4,0.9-0.9,0.6-1.3c-0.3-0.4-1.1-0.9-1.3-1.3c-0.2-0.4-0.7-1-0.5-1.3s0.8-1.2,1.7-1.3c0.8-0.2,2.6,0,3.4-0.3
		c0.8-0.3,2.7-2.6,3.3-3.2c0.6-0.6,1.5-1.5,2.4-1.4C174.9,179.1,179.4,181.9,179.9,182.8z"/>
	<path class="st2" d="M184.3,219.7c0.2,0.2-0.3,0-0.3,0s1.5,1.1,2.5,1.3s1,1.3,1.5,1.5s0,1.9,0,1.9l-0.1,1.5c0,0,0.4,0,1-0.1
		s0.3,1.9,0.3,1.9l-0.4,0.9c0,0-1.4,1.5-1.6,1.6s-1.5,1.6-1.5,1.6s-3.3,0.6-5.6,1.6c-0.4,0.2-2.9,0.4-3.5,0.4s-0.8,1.1-1.1,1
		s-4.8-0.3-6.1-0.5s-6.4,1.1-7.3,1.1s-2.1,0.8-2.4,1.1s-2-0.1-2.4,0.1s-3.1,1.4-3.9,1.4s-1.1,1.4-1.1,1.4s-1.4,2-2.3,1.9
		s-1.5-3-2-3.3s-5.8,0.9-5.8,0.9l-1.1-2.2c2.4-0.6,4.6-1.2,4.8-1.2c0.4,0-1-1.5-1.8-2.1s-2.9-1.1-4.1-1.8s-1.1,0-3.1,0.4
		c-0.5,0.1-1-1-2.1-1.4s0.1-1.1,0.1-1.1l-3.3-2.6c0,0-2-1.9-3.6-2.6c-0.1,0-0.1-0.1-0.2-0.1c0,0,1-1.1,2-1.3s1.9-0.6,2.3-0.9
		s0.8-1.3,1.4-1.3s2.5-0.4,3.2-0.8s1.9-0.9,2.6-0.8s1.1-0.4,1.6-0.8s1.5-0.5,2.1-0.3s2,0.1,2.9,0s1-1.4,1.3-1.7s1.8-1.4,2.9-1.4
		s3.9-0.8,4.4-0.8s2.2-0.6,2.6-0.2s1.4,1.9,1.4,1.9s-0.1,1.4,1.3,1s2.8-0.9,3.1-1.3s0.4-0.6,0.6-1.1s1.4-1.1,2.3-1.1s2.8-1.1,3-1.2
		s1.9-0.1,2.1-0.1s2.5-0.2,2.5-0.2s1.9,0.1,2.1,0.2s2.1,1.9,2.1,1.9l1.9,1.3c0,0,0.1,1.8,0.3,1.9s0.3,1.4,0.3,1.7s1.4,1.1,1.8,0.9
		S183.9,219.3,184.3,219.7z"/>
</g>
</svg>
